<?xml version="1.0" standalone="no"?>
<!DOCTYPE svg PUBLIC "-//W3C//DTD SVG 20010904//EN"
 "http://www.w3.org/TR/2001/REC-SVG-20010904/DTD/svg10.dtd">
<svg version="1.0" xmlns="http://www.w3.org/2000/svg"
 width="96.000000pt" height="96.000000pt" viewBox="0 0 96.000000 96.000000"
 preserveAspectRatio="xMidYMid meet">
<metadata>
Created by potrace 1.16, written by Peter Selinger 2001-2019
</metadata>
<g transform="translate(0.000000,96.000000) scale(0.100000,-0.100000)"
fill="#000000" stroke="none">
<path d="M365 850 c-44 -14 -55 -36 -55 -107 l0 -63 90 0 c83 0 90 -1 90 -20
0 -19 -7 -20 -164 -20 -185 0 -206 -7 -226 -78 -14 -52 -12 -160 4 -205 24
-65 41 -77 113 -77 l63 0 0 69 c0 118 46 151 212 151 77 0 90 3 115 24 28 24
28 25 28 150 0 124 0 126 -28 153 -26 26 -34 28 -120 30 -50 1 -105 -2 -122
-7z"/>
</g>
</svg>
